# xmcd CD database file
#
# Track frame offsets:
#	150
#	25643
#	41643
#	65912
#	88380
#	119814
#	139251
#	166701
#
# Disc length: 2499 seconds
#
# Revision: 9
# Processed by: cddbd v1.5.2PL0 Copyright (c) Steve Scherf et al.
# Submitted via: CDex 1.70beta3
#
DISCID=7309c108
DTITLE=Larry Carlton - Larry Carlton
DYEAR=1978
DGENRE=Fusion
TTITLE0=Room 335
TTITLE1=Where Did You Come From
TTITLE2=Nite Crawler
TTITLE3=Point It Up
TTITLE4=Rio Samba
TTITLE5=I Apologize
TTITLE6=Don't Give It Up
TTITLE7=(It Was) Only Yesterday
EXTD=YEAR: 1978
EXTT0=
EXTT1=
EXTT2=
EXTT3=
EXTT4=
EXTT5=
EXTT6=
EXTT7=
PLAYORDER=
